<?xml version="1.0" encoding="UTF-8"?>
<svg xmlns:xodm="http://www.corel.com/coreldraw/odm/2003" xmlns="http://www.w3.org/2000/svg" xmlns:xlink="http://www.w3.org/1999/xlink" version="1.1" id="Layer_1" x="0px" y="0px" viewBox="0 0 2500 526" style="enable-background:new 0 0 2500 526;" xml:space="preserve">
<style type="text/css">
	.st0{fill:#7950DD;}
</style>
<g id="Layer_x0020_1">
	<g id="_2082270349024">
		<path class="st0" d="M442.8,160.8c-10.8-6.7-24.9-6.7-36.8,0l-84.4,51.1l-57.4,33.3l-84.4,51.1c-10.8,6.7-24.9,6.7-36.8,0    l-67.1-40c-10.8-6.7-18.4-18.9-18.4-32.2v-78.9c0-13.3,6.5-25.6,18.4-32.2l66-38.9c10.8-6.7,24.9-6.7,36.8,0l66,38.9    c10.8,6.7,18.4,18.9,18.4,32.2v51.1l57.4-34.4v-51.1c0-13.3-6.5-25.6-18.4-32.2L179.7,5.2c-10.8-6.7-24.9-6.7-36.8,0L18.4,78.5    C6.5,85.2,0,97.4,0,110.8v147.8c0,13.3,6.5,25.6,18.4,32.2l124.5,73.3c10.8,6.7,24.9,6.7,36.8,0l84.4-50l57.4-34.4l84.4-50    c10.8-6.7,24.9-6.7,36.8,0l66,38.9c10.8,6.7,18.4,18.9,18.4,32.2v78.9c0,13.3-6.5,25.6-18.4,32.2l-66,40    c-10.8,6.7-24.9,6.7-36.8,0l-66-38.9c-10.8-6.7-18.4-18.9-18.4-32.2v-51.1l-57.4,34.4v51.1c0,13.3,6.5,25.6,18.4,32.2l124.5,73.3    c10.8,6.7,24.9,6.7,36.8,0l124.5-73.3c10.8-6.7,18.4-18.9,18.4-32.2V267.4c0-13.3-6.5-25.6-18.4-32.2L442.8,160.8L442.8,160.8z"></path>
		<path d="M815.3,478.5V355.8c13.2,16.7,37.2,26.1,65,26.1c70.9,0,118.8-50.7,118.8-128.1s-44-128.1-112.9-128.1    c-31.8,0-56.2,11.8-70.9,31v-27.1h-68v348.9H815.3z M872.1,322.8c-36.7,0-60.6-27.6-60.6-69c0-41.9,24-69.5,60.6-69.5    c35.7,0,60.1,27.6,60.1,69.5C932.2,295.2,907.8,322.8,872.1,322.8z"></path>
		<path d="M1153.5,382c75.8,0,130.1-54.2,130.1-128.1c0-73.9-54.3-128.1-130.1-128.1c-75.8,0-130.1,54.2-130.1,128.1    C1023.5,327.8,1077.7,382,1153.5,382z M1153.5,322.8c-36.7,0-61.6-28.1-61.6-69c0-41.4,24.9-69.5,61.6-69.5    c36.7,0,61.6,28.1,61.6,69.5C1215.1,294.7,1190.2,322.8,1153.5,322.8z"></path>
		<polygon points="1392.7,378 1392.7,21.8 1324.7,21.8 1324.7,378   "></polygon>
		<polygon points="1597,129.7 1545.6,289.8 1493.8,129.7 1424.4,129.7 1513.8,376 1477.7,478.5 1542.7,478.5 1577.4,377     1666.9,129.7   "></polygon>
		<path d="M1857.8,154.3c-13.7-17.2-38.1-28.6-68-28.6c-71.9,0-115.4,50.8-115.4,128.1S1717.9,382,1790.8,382    c28.9,0,54.8-10.8,67.5-29.1v32.5c0,23.2-15.2,39.4-35.7,39.4h-113.4v53.7h124.2c55.7,0,92.9-34,92.9-85.7V129.7h-68.5V154.3    L1857.8,154.3z M1801.5,322.8c-36.2,0-60.1-27.1-60.1-69c0-41.9,24-69.5,60.1-69.5c36.7,0,60.6,27.6,60.6,69.5    C1862.2,295.7,1838.2,322.8,1801.5,322.8z"></path>
		<path d="M2097.6,382c75.8,0,130.1-54.2,130.1-128.1c0-73.9-54.3-128.1-130.1-128.1c-75.8,0-130.1,54.2-130.1,128.1    C1967.5,327.8,2021.8,382,2097.6,382z M2097.6,322.8c-36.7,0-61.6-28.1-61.6-69c0-41.4,24.9-69.5,61.6-69.5s61.6,28.1,61.6,69.5    C2159.2,294.7,2134.2,322.8,2097.6,322.8z"></path>
		<path d="M2333.3,378V242c0-32,21-55.2,50.9-55.2c28.4,0,47.4,21.7,47.4,51.7V378h68.5V223.3c0-57.2-36.2-97.6-91.9-97.6    c-33.7,0-61.1,14.3-74.8,38.4v-34.5h-68.5V378L2333.3,378L2333.3,378z"></path>
	</g>
</g>
</svg>
